<?xml version="1.0" encoding="UTF-8" standalone="no"?>
<!DOCTYPE svg PUBLIC "-//W3C//DTD SVG 1.1//EN" "http://www.w3.org/Graphics/SVG/1.1/DTD/svg11.dtd">
<svg width="100%" height="100%" viewBox="0 0 2481 3508" version="1.1" xmlns="http://www.w3.org/2000/svg" xmlns:xlink="http://www.w3.org/1999/xlink" xml:space="preserve" xmlns:serif="http://www.serif.com/" style="fill-rule:evenodd;clip-rule:evenodd;stroke-linejoin:round;stroke-miterlimit:2;">
    <g transform="matrix(1,0,0,1,9.473122,-1749.999008)">
        <g transform="matrix(2.179978,0,0,2.179978,124.008577,1576.945043)">
            <path d="M619.45,191.676C623.089,199.719 625.569,191.208 634.492,191.127C634.752,191.125 634.732,191.12 637.729,191.027C637.876,191.584 638.024,192.14 638.171,192.697C638.787,193.255 639.399,193.808 648.439,191.093C664.809,190.371 664.691,191.568 666.382,192.721C671.212,196.015 676.16,185.59 689.609,193.214C694.404,195.932 694.914,190.101 712.444,192.858C712.604,192.883 713.911,189.738 737.557,192.188C770.969,195.649 902.72,202.631 893.557,214.542C892.366,216.091 862.039,213.144 860.628,213.58C858.794,213.636 858.459,212.923 857.704,214.543C856.623,216.86 860.599,214.386 860.811,214.255C863.579,216.233 863.059,216.881 866.372,217.896C871.727,219.931 872.044,218.847 876.636,222.314C883.684,227.634 904.146,228.381 901.506,237.501C900.57,240.734 906.825,236.49 908.551,237.364C924.655,245.519 941.633,258.601 944.34,260.686C945.747,261.77 966.231,274.184 975.68,295.365C976.744,297.539 977.207,296.974 978.902,296.259C979.854,299.091 985.666,316.388 979.713,333.599C979.254,334.926 976.508,332.744 974.618,339.536C972.05,348.762 964.673,348.961 963.506,348.993C958.104,349.138 961.975,354.379 954.51,358.519C935.219,369.217 928.657,376.76 868.473,392.407C829.796,402.462 829.894,402.062 790.55,409.872C789.262,406.455 788.809,406.637 788.533,406.748C787.092,407.326 787.713,407.671 788.5,409.015L789.432,410.115C780.8,411.975 780.141,413.308 769.534,413.932C766.214,409.073 765.084,412.159 765.266,412.47C765.391,412.683 765.266,412.47 767.521,414.577C762.66,415.622 750.914,418.946 742.573,419.266L742.216,418.5C742.176,414.148 738.258,416.592 738.181,417.5C738.141,417.974 739.24,418.026 739.199,418.5L739.449,419.184C736.138,419.723 731.056,419.754 730.648,420.653C729.347,423.514 728.503,421.936 725.623,422.023C712.011,421.761 712.702,427.593 699.53,426.088C697.925,425.905 698.113,427.361 679.449,428.194C678.16,428.251 678.318,428.94 663.448,430.216C654.952,430.945 618.457,439.044 609.575,437.025C609.19,436.937 573.107,443.539 546.455,443.622C546.119,443.679 545.782,443.736 545.446,443.793C542.387,443.679 523.433,447.157 510.471,448.162C506.627,448.46 470.423,451.267 462.43,451.994C456.328,452.057 405.472,455.779 400.521,456.141C400.198,456.165 400.224,456.177 396.504,456.634C270.87,464.287 262.346,457.076 244.415,462.185C241.637,462.977 241.764,460.35 208.523,458.22C8.007,445.375 28.767,378.827 38.978,353.722C45.789,336.975 71.046,318.01 77.293,313.244C78.736,315.668 79.259,315.634 79.518,315.617C81.308,315.501 78.528,312.532 78.337,312.328L80.256,311.096C82.892,313.506 83.131,313.385 83.403,313.246C85.14,312.362 84.311,311.678 82.5,311.159L81.328,310.242C111.914,290.623 112.503,291.698 116.48,290.384C117.069,290.569 116.911,291.744 117.5,291.929C120.823,292.975 120.571,291.162 119.713,287.855C119.954,287.697 140.618,277.279 142.437,276.362C146.32,274.404 147.604,278.055 150.471,274.475C154.987,268.833 164.017,273.291 167.846,267.73C170.453,263.945 175.644,262.49 176.428,262.27C176.932,262.129 180.093,263.401 185.266,260.13C188.174,258.291 188.158,260.552 191.501,260.516C192.008,260.51 191.415,259.502 197.398,258.202C202.78,257.033 204.284,253.542 206.53,254.344C211.944,256.275 211.689,252.058 211.661,251.593C211.63,251.078 216.259,247.708 222.554,251.314C222.888,251.506 224.515,252.438 226.449,248.473C227.722,245.865 244.154,239.529 248.462,239.815C251.34,240.006 251.537,239.553 253.145,241.939C253.216,242.045 253.145,241.939 254.388,242.935C256.407,242.254 257.137,242.404 256.448,240.454C261.262,238.124 261.74,239.882 266.501,237.502C268.349,236.691 268.346,237.034 269.651,235.721C274.29,231.054 276.8,237.425 280.453,233.456C286.497,226.888 287.991,231.863 288.398,231.346C288.87,230.746 293.535,224.811 297.504,228.488C302.418,233.041 302.607,228.614 308.413,225.353C308.719,225.36 309.026,225.367 309.332,225.374C311.111,223.438 311.347,223.818 314.523,224.274C320.364,225.113 320.028,223.393 320.501,223.488C337.837,226.979 336.866,214.165 354.506,217.582C359.268,218.504 358.505,214.614 363.479,214.945C371.128,215.453 371.029,214.065 371.543,214.457C376.901,218.541 385.143,207.303 391.411,210.741C398.14,214.433 398.033,210.118 405.497,208.539C407.883,210.437 408.217,210.346 410.519,208.182C416.141,208.915 415.822,207.089 421.498,206.513C422.338,207.735 422.35,207.397 423.588,207.951C430.748,201.676 433.803,209.535 438.598,204.613C441.231,201.909 442.43,205.595 445.408,203.357C446.931,202.213 451.319,204.763 452.371,204.095C453.13,203.613 454.945,200.514 457.698,203.14C459.049,204.429 470.099,196.96 476.467,201.558C478.837,203.269 495.641,194.501 499.348,199.714C500.008,200.643 500.266,199.934 513.567,198.926C515.943,198.703 515.633,198.373 517.545,197.265C519.658,197.586 519.484,197.385 521.532,196.591C534.158,191.699 536.771,199.155 540.608,197.791C553.156,193.329 553.23,194.037 566.546,194.206C577.971,194.351 591.304,189.776 595.29,193.668C597.689,196.011 598.079,194.716 604.453,194.021C609.659,193.893 610.133,195.322 613.459,192.284C613.932,192.192 613.888,192.262 619.45,191.676Z" style="fill:rgb(1,1,1);"/>
        </g>
        <g transform="matrix(2.146344,0,0,2.085832,125.648708,1596.06779)">
            <path d="M813.606,211.262L815.519,212.448C903.55,236.44 954.754,286.288 960.537,299.482C968.842,318.429 965.043,329.332 946.162,343.038C927.825,356.35 928.356,357.093 926.569,357.918C927.894,354.608 926.774,354.516 926.501,354.494C923.472,354.245 923.739,355.779 925.457,358.239C925.204,358.27 920.078,356.416 908.542,364.581C905.854,362.397 905.655,363.362 902.585,364.74C893.774,368.075 892,369.424 891.2,370.032C890.312,370.274 889.423,370.516 888.535,370.758C880.835,371.928 881.02,371.82 873.447,374.43C873.388,374.759 873.328,375.089 873.269,375.418C872.225,378.598 870.92,377.33 868.704,379.738L867.972,378.5C866.212,378.051 866.336,378.138 864.517,377.92C862.884,378.224 854.129,379.854 844.492,383.408C836.336,384.738 836.726,386.029 828.487,386.356C822.503,386.594 814.75,394.32 805.534,392.287C794.583,389.871 795.241,399.064 789.646,396.214C786.168,394.443 774.541,397.9 773.276,398.276C772.683,398.694 772.091,399.112 771.498,399.53C769.317,399.564 769.668,400.859 744.523,403.557C743.511,403.847 742.498,404.137 741.485,404.427C735.408,404.285 732.179,407.146 731.553,407.701C722.666,408.664 714.341,406.404 710.127,412.205C709.989,412.395 709.029,413.717 707.499,413.517C702.382,412.847 702.463,412.66 697.527,413.719C696.658,412.889 693.137,409.527 682.507,413.311C672.766,414.043 672.931,413.93 663.528,416.671C661.394,415.97 661.609,415.976 659.526,416.009C651.783,417.261 651.897,416.805 644.261,419.036C640.414,418.597 640.519,418.321 636.448,419.004C620.416,422.118 620.649,422.892 620.547,422.954C618.463,422.178 618.667,421.836 616.448,422.04C596.354,421.834 591.134,424.935 589.242,426.059L587.61,426.759C585.055,426.232 585.21,426.194 582.518,426.557C578.685,429.872 577.287,423.306 573.575,426.613C568.642,431.009 567.886,426.865 561.487,427.307C551.776,427.978 553.056,434.612 546.95,432.242C547.727,430.276 548.066,430.706 549.645,429.444C550.177,428.995 549.862,429.095 549.426,428.622C546.354,428.573 546.52,428.569 543.51,429.535L536.527,429.757L534.498,429.981C513.198,432.095 513.609,433.819 512.602,434.643C512.576,434.628 512.146,432.37 507.648,433.091L501.368,433.222C500.356,433.085 500.421,433.181 496.477,433.584C495.92,433.63 490.881,434.05 489.53,434.368C488.489,434.479 488.568,434.428 476.469,435.222C468.427,436.238 468.586,435.975 460.5,436.442C457.145,436.738 453.789,437.034 450.433,437.33C449.957,437.371 445.277,436.521 449.539,440.559C445.134,440.495 445.578,439.409 441.486,438.574C439.191,438.105 436.759,438.789 434.465,438.321L433.497,438.379C414.121,439.861 413.558,439.265 412.953,440.805C412.673,441.519 411.626,445.777 407.318,442.594L408.5,442.266C408.874,441.613 409.845,441.455 410.219,440.802C410.729,439.912 358.779,443.953 330.503,444.51C284.817,447.167 247.102,442.208 240.548,445.594C240.388,445.676 211.949,443.073 209.463,442.845C143.423,436.799 45.515,428.604 48.847,372.517C49.733,357.597 76.797,328.154 108.357,311.224C131.23,298.954 180.3,262.408 362.572,227.861C377.079,225.111 433.364,218.333 437.684,215.846C439.964,214.534 439.919,216.63 442.49,216.488C442.346,216.158 442.202,215.829 442.058,215.5C441.719,212.638 452.935,216.36 462.454,214.206C471.352,212.192 471.496,214.157 480.476,212.383C492.169,210.074 535.226,208.05 540.495,207.455C577.462,203.277 674.101,202.75 695.507,203.294C701.37,203.442 794.954,204.654 813.606,211.262Z" style="fill:rgb(98,169,208);"/>
        </g>
    </g>
    <g transform="matrix(8.811712,0,0,8.811712,-6814.375809,-4968.766088)">
        <g transform="matrix(38.118025,0,0,38.118025,977.278786,631.330679)">
        </g>
        <text x="850.51px" y="631.331px" style="font-family:'Bauhaus93', 'Bauhaus 93', fantasy;font-size:38.118px;">portrait</text>
    </g>
</svg>
